# File created by Blade
# Date/Time:  Wed Apr 08 17:04:22 2015
# Frame Rate: 120.000 fps
#------------------------------------------------------
:FULLY-SPECIFIED
:DEGREES
1565
root 3.341556 35.950455 4.556748 -127.078230 -82.828415 158.092646
Spine -34.673221 -13.410331 0.142477
Head 49.503360 -13.837315 -17.586041
LeftShoulder 9.529273 3.389444 26.180017
LeftArm 102.870992 42.148888 -39.436532
LeftForeArm 13.956156 0.000000 99.921571
LeftHand -9.025415 -0.000000 -11.626189
LeftHandThumb1 -26.253704 0.000000 33.147579
RightShoulder -11.382606 -65.337961 -21.850877
RightArm 40.965000 18.790001 68.181889
RightForeArm 66.848314 -0.000000 110.416733
RightHand 8.993245 -0.000000 8.445850
RightHandThumb1 -24.326973 -0.000000 -32.862282
LeftUpLeg -35.330627 9.506837 -5.952062
LeftLeg 20.894368 -0.000000 -0.000000
LeftFoot -16.597642 8.234740 -14.360823
LeftToeBase 7.509502 -0.000000 -0.000000
RightUpLeg -35.344636 -8.290431 -10.562284
RightLeg 16.088491 -0.000000 -0.000000
RightFoot -11.742868 1.887248 21.519030
RightToeBase 13.625929 -0.000000 -0.000000
1566
root 3.344622 35.952861 4.543237 -127.437318 -82.769558 158.417851
Spine -34.603102 -13.436897 0.073105
Head 49.368525 -13.823667 -17.445267
LeftShoulder 9.525768 3.382138 26.190058
LeftArm 102.848947 42.170165 -39.499613
LeftForeArm 13.898234 -0.000000 99.906191
LeftHand -9.036923 -0.000000 -11.640279
LeftHandThumb1 -26.253704 0.000000 33.147579
RightShoulder -11.417948 -65.267870 -21.809610
RightArm 40.944173 19.338215 68.372436
RightForeArm 66.027613 -0.000000 109.250335
RightHand 9.175430 -0.000000 7.442008
RightHandThumb1 -24.326973 -0.000000 -32.862282
LeftUpLeg -35.251406 9.540132 -5.927807
LeftLeg 20.812393 -0.000000 -0.000000
LeftFoot -16.592176 8.277950 -14.365043
LeftToeBase 7.544053 -0.000000 -0.000000
RightUpLeg -35.322417 -8.204900 -10.564040
RightLeg 16.066634 -0.000000 -0.000000
RightFoot -11.730284 1.872763 21.496202
RightToeBase 13.657554 -0.000000 -0.000000
1567
root 3.347339 35.955167 4.531109 -127.672462 -82.727692 158.620319
Spine -34.541936 -13.491873 0.030961
Head 49.250633 -13.804801 -17.383050
LeftShoulder 9.507122 3.372595 26.174048
LeftArm 102.823317 42.179399 -39.558762
LeftForeArm 13.882104 0.000000 99.897188
LeftHand -9.024201 -0.000000 -11.666645
LeftHandThumb1 -26.253704 0.000000 33.147579
RightShoulder -11.429694 -65.203264 -21.818448
RightArm 40.901774 19.796110 68.483606
RightForeArm 65.250834 0.000000 108.034406
RightHand 9.293981 -0.000000 6.151260
RightHandThumb1 -24.326973 -0.000000 -32.862282
LeftUpLeg -35.178101 9.547426 -5.899339
LeftLeg 20.737620 -0.000000 -0.000000
LeftFoot -16.575584 8.337466 -14.389146
LeftToeBase 7.544838 -0.000000 -0.000000
RightUpLeg -35.291113 -8.133041 -10.570585
RightLeg 16.037906 -0.000000 -0.000000
RightFoot -11.729771 1.855066 21.492874
RightToeBase 13.674124 -0.000000 -0.000000
1568
root 3.348223 35.956686 4.520631 -127.982043 -82.652830 158.858216
Spine -34.433822 -13.527955 -0.047067
Head 49.145709 -13.777543 -17.352035
LeftShoulder 9.497549 3.329626 26.146607
LeftArm 102.755454 42.202389 -39.649350
LeftForeArm 13.896986 -0.000000 99.887963
LeftHand -9.042304 -0.000000 -11.753288
LeftHandThumb1 -26.253704 0.000000 33.147579
RightShoulder -11.397848 -65.091114 -21.851964
RightArm 40.792648 20.190328 68.558676
RightForeArm 64.803900 -0.000000 106.707499
RightHand 9.433604 -0.000000 5.152296
RightHandThumb1 -24.326973 -0.000000 -32.862282
LeftUpLeg -35.057503 9.583737 -5.891580
LeftLeg 20.659216 -0.000000 -0.000000
LeftFoot -16.566948 8.400001 -14.392915
LeftToeBase 7.550662 -0.000000 -0.000000
RightUpLeg -35.235282 -8.069289 -10.592113
RightLeg 16.025276 -0.000000 -0.000000
RightFoot -11.712539 1.890232 21.498453
RightToeBase 13.665112 -0.000000 -0.000000
1569
root 3.351030 35.958583 4.508760 -128.301950 -82.603978 159.147922
Spine -34.370473 -13.561806 -0.094889
Head 49.059134 -13.764034 -17.336527
LeftShoulder 9.480808 3.311155 26.126419
LeftArm 102.739902 42.199691 -39.703531
LeftForeArm 13.832092 -0.000000 99.874862
LeftHand -9.007906 -0.000000 -11.818787
LeftHandThumb1 -26.253704 0.000000 33.147579
RightShoulder -11.402021 -64.972070 -21.836106
RightArm 40.637066 20.544449 68.553353
RightForeArm 64.717871 -0.000000 105.315690
RightHand 9.592977 -0.000000 4.230119
RightHandThumb1 -24.326973 -0.000000 -32.862282
LeftUpLeg -34.994257 9.610713 -5.862420
LeftLeg 20.602555 -0.000000 -0.000000
LeftFoot -16.556894 8.441137 -14.412896
LeftToeBase 7.533315 -0.000000 -0.000000
RightUpLeg -35.219374 -8.013678 -10.585620
RightLeg 16.011210 -0.000000 -0.000000
RightFoot -11.693425 1.908895 21.483913
RightToeBase 13.695093 -0.000000 -0.000000
1570
root 3.353959 35.960401 4.498170 -128.605953 -82.557595 159.404867
Spine -34.287795 -13.622104 -0.121858
Head 48.947389 -13.691481 -17.327664
LeftShoulder 9.436632 3.313745 26.078575
LeftArm 102.733486 42.177473 -39.718217
LeftForeArm 13.766222 0.000000 99.886378
LeftHand -8.933291 -0.000000 -11.947208
LeftHandThumb1 -26.253704 0.000000 33.147579
RightShoulder -11.408222 -64.818738 -21.867220
RightArm 40.510275 20.782804 68.546991
RightForeArm 64.668988 -0.000000 103.776510
RightHand 9.784053 0.000000 3.583239
RightHandThumb1 -24.326973 -0.000000 -32.862282
LeftUpLeg -34.923413 9.640513 -5.836164
LeftLeg 20.563321 -0.000000 -0.000000
LeftFoot -16.554299 8.475888 -14.448305
LeftToeBase 7.523350 -0.000000 -0.000000
RightUpLeg -35.191562 -7.998436 -10.563965
RightLeg 16.003428 -0.000000 -0.000000
RightFoot -11.658139 1.968556 21.480512
RightToeBase 13.724880 -0.000000 -0.000000
1571
root 3.356620 35.961739 4.487201 -128.915742 -82.519727 159.684975
Spine -34.232397 -13.691066 -0.116831
Head 48.832653 -13.586631 -17.360345
LeftShoulder 9.399154 3.335502 25.997204
LeftArm 102.714613 42.131806 -39.741722
LeftForeArm 13.853594 0.000000 99.923613
LeftHand -8.912195 -0.000000 -12.119949
LeftHandThumb1 -26.253704 0.000000 33.147579
RightShoulder -11.536941 -64.737336 -21.793518
RightArm 40.531998 21.013003 68.508059
RightForeArm 64.729988 -0.000000 102.173328
RightHand 9.886987 -0.000000 2.647527
RightHandThumb1 -24.326973 -0.000000 -32.862282
LeftUpLeg -34.875746 9.675315 -5.803526
LeftLeg 20.537617 -0.000000 -0.000000
LeftFoot -16.540550 8.494669 -14.433136
LeftToeBase 7.541468 -0.000000 -0.000000
RightUpLeg -35.176265 -8.000709 -10.524971
RightLeg 15.991637 -0.000000 -0.000000
RightFoot -11.619286 2.049120 21.473374
RightToeBase 13.742529 -0.000000 -0.000000
1572
root 3.361008 35.963040 4.477135 -129.249346 -82.480712 160.004091
Spine -34.189186 -13.763183 -0.108027
Head 48.722716 -13.488304 -17.368405
LeftShoulder 9.353066 3.318719 25.943084
LeftArm 102.684259 42.122839 -39.783372
LeftForeArm 13.868070 0.000000 99.951782
LeftHand -8.857168 -0.000000 -12.203037
LeftHandThumb1 -26.253704 0.000000 33.147579
RightShoulder -11.616598 -64.674417 -21.748285
RightArm 40.541581 21.276825 68.498112
RightForeArm 64.564684 -0.000000 100.497727
RightHand 10.010274 0.000000 1.910983
RightHandThumb1 -24.326973 -0.000000 -32.862282
LeftUpLeg -34.847451 9.728375 -5.786654
LeftLeg 20.503280 -0.000000 -0.000000
LeftFoot -16.540752 8.506799 -14.475165
LeftToeBase 7.548804 -0.000000 -0.000000
RightUpLeg -35.173865 -7.991325 -10.492125
RightLeg 15.965531 -0.000000 -0.000000
RightFoot -11.560539 2.121303 21.475002
RightToeBase 13.686776 -0.000000 -0.000000
1573
root 3.365412 35.965080 4.466640 -129.537124 -82.445082 160.280930
Spine -34.152301 -13.837165 -0.114182
Head 48.628522 -13.387796 -17.344201
LeftShoulder 9.324847 3.324748 25.904737
LeftArm 102.694562 42.093849 -39.780770
LeftForeArm 13.882436 -0.000000 99.981193
LeftHand -8.878781 -0.000000 -12.198092
LeftHandThumb1 -26.253704 0.000000 33.147579
RightShoulder -11.657940 -64.609395 -21.727108
RightArm 40.520007 21.529087 68.516096
RightForeArm 64.093761 -0.000000 98.781713
RightHand 10.047858 -0.000000 0.729191
RightHandThumb1 -24.326973 -0.000000 -32.862282
LeftUpLeg -34.821179 9.750741 -5.751096
LeftLeg 20.475234 -0.000000 -0.000000
LeftFoot -16.525148 8.540813 -14.464584
LeftToeBase 7.541234 -0.000000 -0.000000
RightUpLeg -35.176745 -8.018113 -10.440559
RightLeg 15.943209 -0.000000 -0.000000
RightFoot -11.502067 2.211875 21.439555
RightToeBase 13.705250 -0.000000 -0.000000
1574
root 3.368446 35.967026 4.455564 -129.876933 -82.403210 160.602634
Spine -34.107612 -13.908651 -0.136575
Head 48.535579 -13.291522 -17.267303
LeftShoulder 9.292582 3.353640 25.889058
LeftArm 102.762619 42.040455 -39.741194
LeftForeArm 13.792761 0.000000 99.998308
LeftHand -8.970309 -0.000000 -12.159633
LeftHandThumb1 -26.253704 0.000000 33.147579
RightShoulder -11.610303 -64.533007 -21.741038
RightArm 40.434768 21.826825 68.546232
RightForeArm 63.415603 0.000000 96.984751
RightHand 10.303114 0.000000 -0.117488
RightHandThumb1 -24.326973 -0.000000 -32.862282
LeftUpLeg -34.789910 9.828267 -5.737898
LeftLeg 20.447509 -0.000000 -0.000000
LeftFoot -16.512902 8.523365 -14.488459
LeftToeBase 7.555184 -0.000000 -0.000000
RightUpLeg -35.171218 -8.034615 -10.388382
RightLeg 15.918151 -0.000000 -0.000000
RightFoot -11.433956 2.305797 21.399759
RightToeBase 13.686949 -0.000000 -0.000000
1575
root 3.371546 35.968379 4.447126 -130.166397 -82.347644 160.875805
Spine -34.064669 -13.964087 -0.163327
Head 48.467007 -13.236756 -17.259872
LeftShoulder 9.282273 3.295107 25.853372
LeftArm 102.723562 42.059837 -39.779149
LeftForeArm 13.882995 -0.000000 100.038309
LeftHand -9.046527 0.000000 -12.165278
LeftHandThumb1 -26.253704 0.000000 33.147579
RightShoulder -11.408416 -64.396915 -21.956022
RightArm 40.220470 22.057276 68.672346
RightForeArm 62.666396 0.000000 95.189192
RightHand 10.536726 -0.000000 -0.700007
RightHandThumb1 -24.326973 -0.000000 -32.862282
LeftUpLeg -34.745227 9.892466 -5.740799
LeftLeg 20.389449 -0.000000 -0.000000
LeftFoot -16.509358 8.540207 -14.505418
LeftToeBase 7.578273 -0.000000 -0.000000
RightUpLeg -35.165889 -8.029064 -10.366657
RightLeg 15.891702 -0.000000 -0.000000
RightFoot -11.384970 2.385825 21.393866
RightToeBase 13.688295 -0.000000 -0.000000
1576
root 3.375056 35.970662 4.438051 -130.439161 -82.290919 161.132769
Spine -34.014147 -13.999908 -0.229342
Head 48.407458 -13.208685 -17.191925
LeftShoulder 9.284739 3.270592 25.826253
LeftArm 102.739283 42.054307 -39.787607
LeftForeArm 13.920614 -0.000000 100.015194
LeftHand -9.037335 0.000000 -12.224044
LeftHandThumb1 -26.253704 0.000000 33.147579
RightShoulder -11.362326 -64.324166 -21.990205
RightArm 40.074837 22.294832 68.753619
RightForeArm 62.102266 -0.000000 93.410981
RightHand 10.472703 -0.000000 -2.408980
RightHandThumb1 -24.326973 -0.000000 -32.862282
LeftUpLeg -34.704919 9.955432 -5.743621
LeftLeg 20.337415 -0.000000 -0.000000
LeftFoot -16.476184 8.564459 -14.444867
LeftToeBase 7.547959 -0.000000 -0.000000
RightUpLeg -35.163479 -8.017156 -10.347257
RightLeg 15.865973 -0.000000 -0.000000
RightFoot -11.341012 2.445381 21.395555
RightToeBase 13.729764 -0.000000 -0.000000
